<?xml version="1.0" encoding="utf-8"?>
<!-- Generator: Adobe Illustrator 25.2.3, SVG Export Plug-In . SVG Version: 6.00 Build 0)  -->
<svg version="1.1" id="Layer_1" xmlns="http://www.w3.org/2000/svg" xmlns:xlink="http://www.w3.org/1999/xlink" x="0px" y="0px"
	 viewBox="0 0 500 100" style="enable-background:new 0 0 500 100;" xml:space="preserve">
<style type="text/css">
	.st0{fill:#AFB1B1;}
	.st1{fill:#FFFFFF;}
	.st2{fill:#F4A524;}
	.st3{fill:#E76930;}
</style>
<g>
	<path class="st0" d="M475.9,55.9L473,39.7c0-0.1-0.5-2.6-2.5-5c-0.9-1.2-2-2-3.2-2.6c-1.1-0.6-2.3-1-3.8-1.2
		c-0.7-0.1-3.1-0.3-3.1-0.3c-5.2-0.3-11.7-0.1-18.8,0.7v0c-4.3,0.4-8.7,1.1-13.2,1.8c-12.4,2.2-23.8,5.5-31.6,9l-1,0.4
		c-3.4,1.5-7.2,4.4-7.4,9.6c4.5,1.3,8.1,3.8,10,7.3c0.3,0.6,0.5,1.4,0.5,1.4c0,0.3,0.1,0.4,0.1,0.6c0,2.2-1.8,4.1-4,4.1
		c-1.6,0-3-0.9-3.7-2.3c-0.3-0.5-0.8-1-1.4-1.5l1.6,9.2c0.1,0.3,1.7,8.7,11,9.1c8.6,0.7,20.7-0.1,33.3-2.3c12.3-2.2,23.8-5.4,31.6-9
		C472.1,67,477.2,63.4,475.9,55.9"/>
	<path class="st1" d="M402.5,69.5c-0.2,0-0.3-0.1-0.4-0.3l-0.7-4c0-0.2,0.1-0.3,0.3-0.4l4-0.7c0.2,0,0.3,0.1,0.4,0.3l0.7,4
		c0,0.2-0.1,0.3-0.3,0.4L402.5,69.5z"/>
	<path class="st1" d="M417.8,67.2c-5.2,0.9-7.7-1.8-8.7-7.5c-1-5.5,0.2-9.3,5.5-10.2c1.5-0.3,2.8-0.3,3.6-0.2c0.1,0,0.2,0,0.2,0.2
		l0.4,2.8c0,0.1-0.1,0.2-0.2,0.2c-0.7-0.1-1.7,0-2.5,0.1c-2.7,0.5-3.2,1.9-2.4,6.4c0.7,4.2,1.7,5.3,4.4,4.8c0.8-0.1,1.8-0.4,2.4-0.7
		c0.1-0.1,0.3-0.1,0.3,0l0.7,2.7c0.1,0.2,0,0.2-0.1,0.3C420.4,66.5,419.1,66.9,417.8,67.2"/>
	<path class="st1" d="M428.3,61.3c0.5,0.4,1.1,0.5,2.5,0.3c1.5-0.3,2-0.6,2.3-1.1c0.5-0.8,0.5-3,0.1-5.3c-0.4-2.4-1-4.1-1.8-4.7
		c-0.5-0.4-1-0.5-2.5-0.3c-1.4,0.3-1.9,0.5-2.3,1.1c-0.5,0.9-0.5,2.7-0.1,5.1C426.8,58.6,427.6,60.7,428.3,61.3 M436.6,62.1
		c-1,1.4-2.6,2.2-5.3,2.7c-2.7,0.5-4.4,0.2-5.7-0.8c-1.5-1.1-2.9-3.7-3.4-6.9c-0.6-3.2-0.2-5.9,0.9-7.4c0.9-1.4,2.6-2.2,5.2-2.6
		c2.7-0.5,4.4-0.3,5.8,0.7c1.5,1.1,2.7,3.5,3.3,6.7C437.9,57.6,437.6,60.5,436.6,62.1"/>
	<path class="st1" d="M456.7,59.6c0,0.2-0.1,0.3-0.3,0.4l-3.6,0.6c-0.2,0-0.3-0.1-0.4-0.3l-2.1-12c-0.3-1.5-1.4-1.7-3.1-1.4
		c-0.8,0.1-1.9,0.4-2.4,0.6c-0.2,0.1-0.3,0.2-0.3,0.4l2.4,13.3c0,0.2-0.1,0.3-0.3,0.4l-3.5,0.6c-0.2,0-0.3-0.1-0.4-0.3L440,46
		c0-0.2,0.1-0.3,0.3-0.4c1.3-0.5,4.4-1.5,6.6-1.9c1.7-0.3,3.6-0.5,4.8,0c0.1,0,0.3,0,0.4-0.1c1.7-0.9,3.5-1.4,5-1.7
		c4.9-0.9,6.9,1,7.5,4.7l2,11.2c0,0.2-0.1,0.3-0.3,0.4l-3.6,0.6c-0.2,0-0.3-0.1-0.4-0.3l-1.9-11c-0.4-2.1-1.4-2.7-3.5-2.4
		c-0.8,0.1-1.7,0.4-2.3,0.6c-0.2,0.1-0.3,0.2-0.3,0.4L456.7,59.6z"/>
	<path class="st2" d="M363.1,58.3c2-2,4.5-3.6,7.3-4.8c-0.5-0.3-1-0.7-1.6-1c-7.1-4.4-8.6-5.4-8.6-8.5c0-3.8,1.9-4.2,7.5-4.2
		c2.6,0,6.4,0.4,9.1,0.9c0.4,0.1,0.6-0.2,0.6-0.4l0.5-7.9c0-0.4-0.2-0.5-0.4-0.6c-2.8-0.5-7.7-1-12-1c-11.6,0-17,3.4-17,13.5
		c0,6,2.5,8.5,9.7,13.3c1.3,0.9,2.4,1.6,3.3,2.3C362.2,59.3,362.6,58.8,363.1,58.3"/>
	<path class="st0" d="M381.2,76.1c-0.8,0.1-1.7,0.2-2.5,0.3c-1.1,1.6-2.5,2.8-4,3.7c0.8,0.1,1.7,0.1,2.6,0.1c1.5,0,3.1-0.1,4.6-0.4
		c3.5-0.6,6.8-1.9,9.5-3.7c-0.8-1.3-1.4-2.5-1.7-3.4C387.3,74.4,384.4,75.6,381.2,76.1"/>
	<path class="st0" d="M396.6,60.5C396.6,60.5,396.6,60.5,396.6,60.5c-2.4-4.3-8.1-7.1-15-7.1c-1.5,0-3.1,0.1-4.6,0.4
		c-10,1.8-16.9,8.5-16.2,15.6c2.7,0,3.5-0.2,3.7-0.8c-0.2-4.8,5.6-9.7,13.1-11.1c1.3-0.2,2.6-0.4,3.9-0.4c5.3,0,9.8,2,11.6,5.1
		c0.3,0.7,1,1.1,1.7,1.1c1.1,0,1.9-0.9,1.9-1.9C396.9,61.1,396.8,60.7,396.6,60.5"/>
	<path class="st3" d="M50.3,69.6c-0.1-0.5-0.7-0.5-1.2-0.5c-2.3,0.6-6.2,1.2-9.5,1.2c-10.4,0-12.8-5.4-12.8-21
		c0-16.6,2.3-22.1,12.8-22.1c3.5,0,7.3,0.5,9.7,1.3c0.5,0.2,0.9-0.2,0.9-0.5l0.5-8.6c0-0.5-0.3-0.6-0.6-0.8c-2.4-0.9-7-1.5-12.2-1.5
		C20.2,17.1,14,29.5,14,49.2c0,20.1,6.2,31.2,23.8,31.2c5.3,0,9.6-0.7,12.8-1.7c0.3-0.1,0.5-0.5,0.4-1.1L50.3,69.6z"/>
	<path class="st3" d="M79.6,71.8c0,0.3-0.1,0.5-0.6,0.6c-1.2,0.3-3.6,0.5-5.7,0.5c-7.1,0-8.8-0.7-8.8-7.2c0-6.5,2-7.7,8.5-7.7h6.1
		c0.4,0,0.5,0.2,0.5,0.5V71.8z M73.2,30.2c-6.1,0-12.4,0.7-15.8,1.7c-0.5,0.2-0.6,0.7-0.5,1.3l0.6,7c0.1,0.5,0.8,0.5,1.4,0.5
		c2.9-0.5,8-0.9,11.2-0.9c7.1,0,9.6,1.3,9.6,6.7v3.6c0,0.4-0.2,0.5-0.5,0.5L68.4,52C55.1,53.6,53,57.7,53,67
		c0,10.4,4.9,13.5,21.2,13.5c6.2,0,12.7-0.6,15.8-1.6c1-0.4,1.2-0.8,1.2-1.4V44.6C91.2,34,84.4,30.2,73.2,30.2"/>
	<path class="st3" d="M121.8,30.6c-2.4-0.3-4.3-0.4-7.3-0.4c-5.8,0-12.5,0.9-17,1.9c-0.5,0.1-0.9,0.4-0.9,0.9v45.6
		c0,0.5,0.4,0.9,0.9,0.9h10c0.6,0.1,1-0.3,1-0.9V41.3c0-0.5,0.1-0.7,0.6-1c1.4-0.5,3.8-0.7,5.2-0.7c2.5,0,4.8,0.2,7,0.5
		c0.5,0.1,0.6-0.2,0.6-0.5l0.4-8.3C122.3,30.9,122.3,30.7,121.8,30.6"/>
	<path class="st2" d="M142.7,48.2h-4.4c-0.5-0.1-0.6-0.3-0.6-0.7V27.4c0-0.4,0.2-0.5,1.2-0.5h3.9c8.1,0,10.3,2.1,10.3,10.2
		C153,45.1,150.5,48.2,142.7,48.2 M158.2,56.5c-1-1.6-1.4-2.6-1.4-3.5c0-0.4,0.3-0.7,0.9-1.3c6.2-3.6,8-8.5,8-16.6
		c0-12.4-7-17-20.7-17h-18.4c-0.5,0-0.9,0.4-0.9,0.9v59.7c0,0.5,0.4,0.9,0.9,0.9h10.2c0.5,0,0.9-0.4,0.9-0.9V57
		c0-0.5,0.3-0.6,0.7-0.6h6.3c0.5,0.1,0.7,0.4,1.5,1.7l10.5,20.7c0.3,0.6,0.5,0.8,1.1,0.8h12c0.7,0,0.7-0.5,0.5-0.9L158.2,56.5z"/>
	<path class="st2" d="M198.6,51.7h-16.7c-0.4,0-0.5-0.3-0.5-0.6c0-7.1,1.6-12.5,9.7-12.5c6.9,0,8.6,3.6,8.6,10.5
		C199.6,51.5,199.4,51.7,198.6,51.7 M191.2,30.3c-14.7,0-21.6,9-21.6,25.2c0,15.3,5.6,25,23.3,25c6.3,0,11.9-1,15.5-2.6
		c0.5-0.2,0.6-0.4,0.6-0.8l-0.6-7.1c-0.2-0.4-0.5-0.4-1-0.4c-2.8,0.9-8.1,2.1-12.8,2.1c-8.4,0-13-2.4-13-12.1c0-0.4,0.1-0.5,0.5-0.5
		h25.5c2.2,0,2.4-1.5,2.4-7.7C210,38.2,205.7,30.3,191.2,30.3"/>
	<path class="st2" d="M235.5,30.3c-5.7,0-13.8,1.1-18.7,1.9c-0.5,0.1-0.9,0.4-0.9,0.9v45.6c0,0.5,0.4,0.9,0.9,0.9h10
		c0.5,0,0.9-0.4,0.9-0.9V40.9c0-0.5,0.3-0.7,0.9-0.9c1.5-0.4,3.7-0.5,6.4-0.5c7.2,0,8.8,1.8,8.8,8.7v30.6c0,0.5,0.4,0.9,0.9,0.9h10
		c0.5,0,0.9-0.4,0.9-0.9V47.6C255.7,34.4,251.5,30.3,235.5,30.3"/>
	<path class="st2" d="M285.4,31.2h-7.6c-0.4,0-0.5-0.2-0.5-0.5V19.3c0-0.5-0.4-0.9-0.9-0.9h-10c-0.5,0-0.9,0.4-0.9,0.9v11.3
		c0,0.4-0.2,0.5-0.5,0.5h-6.2c-0.5,0-0.9,0.4-0.9,0.9v7.3c0,0.5,0.4,0.9,0.9,0.9h6.2c0.4,0,0.5,0.2,0.5,0.5v29.7
		c0,6.6,3.7,10,10.9,10c2.5,0,5.3-0.4,7.3-0.8c0.4-0.1,0.9-0.6,0.9-1.2l0.3-6.1c0-0.7-0.5-0.9-0.9-0.9h-2.8c-2.9,0-3.9-0.8-3.9-3.8
		V40.9c0-0.4,0.2-0.5,0.5-0.5h7.6c0.5,0,0.9-0.4,0.9-0.9v-7.3C286.3,31.6,285.9,31.2,285.4,31.2"/>
	<path class="st2" d="M314.5,71.8c0,0.3-0.1,0.5-0.6,0.6c-1.2,0.3-3.6,0.4-5.7,0.4c-7.1,0-8.8-0.7-8.8-7.1c0-6.5,2-7.7,8.5-7.7h6.1
		c0.4,0,0.5,0.2,0.5,0.5V71.8z M308.1,30.3c-6.1,0-12.4,0.7-15.8,1.7c-0.5,0.2-0.6,0.7-0.5,1.3l0.6,7c0.1,0.5,0.8,0.5,1.4,0.5
		c2.9-0.5,8-0.9,11.2-0.9c7.1,0,9.6,1.3,9.6,6.7v3.6c0,0.4-0.2,0.5-0.5,0.5L303.3,52c-13.3,1.6-15.4,5.8-15.4,15
		c0,10.4,4.9,13.5,21.2,13.5c6.2,0,12.7-0.6,15.8-1.6c1-0.4,1.2-0.8,1.2-1.4V44.7C326.1,34.1,319.3,30.3,308.1,30.3"/>
	<path class="st2" d="M377.2,59.8c-4.9,1.1-9,4-10.1,6.9c-0.1,0.2-0.1,0.4-0.2,0.7c-0.2,3.5-1.5,4.1-7.3,4.1h-12.3
		c-2.6,0-3.8-0.9-3.8-3.8V14.1c0-0.6-0.4-1-0.9-1h-10c-0.5,0-0.9,0.4-0.9,1v55.2c0,8.4,3.8,11,11.3,11h18.9
		c7.6-0.1,12.9-1.4,15.3-6.1h0c1-2,1.6-4.6,1.6-7.9C378.8,63.8,378.4,61.7,377.2,59.8"/>
	<path class="st0" d="M483.9,32.6L483.9,32.6l-1.4,3.3h-0.6l-1.4-3.4l0,0v3.4h-1.1v-5.4h1.4l1.4,3.8l1.5-3.8h1.3v5.4h-1.1V32.6z
		 M478.7,31.4h-1.4v4.4h-1.2v-4.4h-1.4v-1h3.9V31.4z"/>
</g>
</svg>
