<?xml version="1.0" encoding="UTF-8"?> <!-- Generator: Adobe Illustrator 24.2.1, SVG Export Plug-In . SVG Version: 6.00 Build 0) --> <svg xmlns="http://www.w3.org/2000/svg" xmlns:xlink="http://www.w3.org/1999/xlink" version="1.1" id="Layer_1" x="0px" y="0px" viewBox="0 0 360 82.7" style="enable-background:new 0 0 360 82.7;" xml:space="preserve"> <style type="text/css"> .st0{fill:#C60039;} .st1{fill:#8F0C3E;} </style> <g> <path class="st0" d="M74.9,61.3h-7.4V45.2c0-2.3-0.4-3.9-1.3-5c-0.8-1.1-2-1.6-3.6-1.6c-0.7,0-1.4,0.1-2.1,0.4 c-0.7,0.3-1.4,0.7-2.1,1.2c-0.7,0.5-1.3,1.2-1.8,1.9c-0.5,0.7-1,1.5-1.2,2.4v16.8h-7.4v-41h7.4v17.6c1.1-1.9,2.5-3.3,4.3-4.3 c1.8-1,3.8-1.5,6-1.5c1.9,0,3.4,0.3,4.6,1c1.2,0.6,2.1,1.5,2.7,2.6c0.7,1.1,1.1,2.3,1.4,3.6c0.3,1.4,0.4,2.7,0.4,4.2V61.3z"></path> <path class="st0" d="M93.3,61.4c-2.3,0-4.3-0.4-6.2-1.2c-1.8-0.8-3.4-1.8-4.7-3.2c-1.3-1.3-2.3-2.9-3-4.6c-0.7-1.8-1.1-3.6-1.1-5.6 c0-2,0.3-3.9,1-5.7c0.7-1.8,1.7-3.4,3-4.7c1.3-1.4,2.9-2.4,4.7-3.2c1.9-0.8,3.9-1.2,6.2-1.2c2.3,0,4.4,0.4,6.2,1.2 c1.8,0.8,3.4,1.9,4.6,3.2c1.3,1.3,2.3,2.9,2.9,4.6c0.7,1.8,1,3.6,1,5.5c0,0.5,0,0.9,0,1.4c0,0.4-0.1,0.8-0.1,1.1H86.1 c0.1,1.1,0.4,2.1,0.8,3c0.4,0.9,1,1.6,1.7,2.2c0.7,0.6,1.5,1.1,2.3,1.4c0.9,0.3,1.8,0.5,2.7,0.5c1.4,0,2.8-0.4,4.1-1.1 c1.3-0.7,2.2-1.6,2.6-2.8l6.2,1.7c-1,2.2-2.7,3.9-5,5.3C99.2,60.7,96.5,61.4,93.3,61.4z M100.7,44.3c-0.2-2.1-1-3.8-2.4-5.1 c-1.4-1.3-3.1-1.9-5.1-1.9c-1,0-1.9,0.2-2.7,0.5c-0.8,0.3-1.6,0.8-2.2,1.4c-0.6,0.6-1.2,1.4-1.6,2.2c-0.4,0.9-0.7,1.8-0.7,2.9 H100.7z"></path> <path class="st0" d="M120.7,61.4c-1.4,0-2.6-0.2-3.8-0.7c-1.2-0.5-2.2-1.1-3.1-1.9c-0.9-0.8-1.5-1.8-2-2.8 c-0.5-1.1-0.7-2.3-0.7-3.6c0-1.3,0.3-2.6,0.9-3.7c0.6-1.1,1.4-2.1,2.5-2.9c1.1-0.8,2.3-1.4,3.8-1.9c1.5-0.5,3.1-0.7,4.9-0.7 c1.3,0,2.5,0.1,3.7,0.3c1.2,0.2,2.3,0.5,3.2,0.9v-1.6c0-1.9-0.5-3.3-1.6-4.3c-1.1-1-2.6-1.5-4.7-1.5c-1.5,0-3,0.3-4.4,0.8 c-1.4,0.5-2.9,1.3-4.4,2.4l-2.2-4.6c3.6-2.4,7.6-3.6,11.8-3.6c4.1,0,7.2,1,9.5,3c2.3,2,3.4,4.9,3.4,8.7v8.8c0,0.8,0.1,1.3,0.4,1.6 c0.3,0.3,0.7,0.5,1.3,0.5v6.2c-1.2,0.3-2.3,0.4-3.2,0.4c-1.4,0-2.4-0.3-3.2-0.9c-0.7-0.6-1.2-1.4-1.4-2.4l-0.2-1.6 c-1.3,1.7-2.8,2.9-4.6,3.8C124.7,61,122.8,61.4,120.7,61.4z M122.8,56.1c1.2,0,2.4-0.2,3.5-0.6c1.1-0.4,2-1,2.6-1.7 c0.8-0.6,1.2-1.3,1.2-2.1v-3.2c-0.9-0.3-1.8-0.6-2.8-0.8c-1-0.2-2-0.3-2.9-0.3c-1.9,0-3.4,0.4-4.6,1.3c-1.2,0.8-1.8,1.9-1.8,3.2 c0,1.2,0.5,2.2,1.4,3.1C120.3,55.7,121.4,56.1,122.8,56.1z"></path> <path class="st0" d="M160.8,61.3c-2.2,0-4.2-0.5-5.8-1.5c-1.7-1-2.9-2.3-3.9-4v16.7h-7.2V32h6.3v5.3c1-1.7,2.4-3,4-3.9 c1.7-1,3.6-1.4,5.7-1.4c1.9,0,3.7,0.4,5.3,1.2c1.6,0.8,3,1.8,4.2,3.1c1.2,1.3,2.1,2.9,2.7,4.6c0.7,1.8,1,3.7,1,5.6 c0,2-0.3,4-0.9,5.8c-0.6,1.8-1.5,3.4-2.6,4.7c-1.1,1.3-2.4,2.4-3.9,3.1C164.3,60.9,162.6,61.3,160.8,61.3z M158.4,55.2 c1.1,0,2.1-0.2,3-0.7c0.9-0.5,1.7-1.1,2.3-1.9c0.6-0.8,1.1-1.7,1.5-2.7c0.4-1,0.5-2.1,0.5-3.2c0-1.2-0.2-2.3-0.6-3.3 c-0.4-1-0.9-1.9-1.6-2.7c-0.7-0.8-1.5-1.3-2.5-1.8c-1-0.4-2-0.6-3.1-0.6c-0.7,0-1.4,0.1-2.1,0.4c-0.7,0.2-1.4,0.6-2,1 c-0.6,0.4-1.2,0.9-1.6,1.5c-0.5,0.6-0.9,1.2-1.1,1.9v6.6c0.6,1.6,1.6,3,3,4C155.4,54.6,156.8,55.2,158.4,55.2z"></path> <path class="st1" d="M197.8,27h-12v34.3h-7.5V27h-12v-6.6h31.5V27z"></path> <rect x="193.9" y="32.1" class="st1" width="7.4" height="29.3"></rect> <path class="st1" d="M206,46.7c0-2,0.3-3.8,1-5.6c0.7-1.8,1.7-3.3,3-4.6c1.3-1.3,2.9-2.4,4.7-3.2c1.8-0.8,3.9-1.2,6.2-1.2 c3.1,0,5.7,0.7,7.9,2c2.2,1.3,3.8,3.1,4.9,5.2l-7.1,2.2c-0.6-1-1.4-1.8-2.4-2.4c-1-0.6-2.1-0.8-3.3-0.8c-1,0-2,0.2-2.9,0.6 c-0.9,0.4-1.7,1-2.3,1.7c-0.7,0.7-1.2,1.6-1.6,2.7c-0.4,1-0.6,2.2-0.6,3.5c0,1.3,0.2,2.4,0.6,3.5c0.4,1,0.9,1.9,1.6,2.7 c0.7,0.8,1.4,1.3,2.3,1.8c0.9,0.4,1.9,0.6,2.9,0.6c1.3,0,2.5-0.3,3.6-1c1.1-0.6,1.9-1.4,2.3-2.4l7.1,2.2c-1,2.2-2.6,3.9-4.8,5.3 c-2.2,1.4-4.9,2.1-8,2.1c-2.3,0-4.4-0.4-6.2-1.2c-1.8-0.8-3.4-1.9-4.7-3.2c-1.3-1.3-2.3-2.9-3-4.7C206.4,50.5,206,48.6,206,46.7z"></path> <path class="st1" d="M257.1,61.3l-8.4-12.5l-4,3.9v8.6h-7.4v-41h7.4v25.2l11.5-13.5h7.9l-10.7,12.7L265,61.3H257.1z"></path> <path class="st1" d="M279.2,61.3c-2.3,0-4.3-0.4-6.2-1.2c-1.8-0.8-3.4-1.8-4.7-3.2c-1.3-1.3-2.3-2.9-3-4.6 c-0.7-1.8-1.1-3.6-1.1-5.6c0-2,0.3-3.9,1-5.7c0.7-1.8,1.7-3.3,3-4.7c1.3-1.3,2.9-2.4,4.7-3.2c1.9-0.8,3.9-1.2,6.2-1.2 c2.3,0,4.4,0.4,6.2,1.2c1.8,0.8,3.4,1.9,4.6,3.2c1.3,1.3,2.2,2.9,2.9,4.6c0.7,1.8,1,3.6,1,5.5c0,0.5,0,0.9,0,1.3 c0,0.4-0.1,0.8-0.1,1.1H272c0.1,1.1,0.4,2.1,0.8,3c0.4,0.9,1,1.6,1.7,2.2c0.7,0.6,1.5,1.1,2.3,1.4c0.9,0.3,1.8,0.5,2.7,0.5 c1.4,0,2.8-0.4,4.1-1.1c1.3-0.7,2.1-1.6,2.6-2.8l6.2,1.7c-1,2.2-2.7,3.9-5,5.3C285.1,60.6,282.3,61.3,279.2,61.3z M286.5,44.3 c-0.2-2.1-1-3.8-2.3-5.1c-1.4-1.3-3.1-1.9-5-1.9c-1,0-1.9,0.2-2.7,0.5c-0.8,0.3-1.6,0.8-2.2,1.4c-0.6,0.6-1.2,1.3-1.6,2.2 c-0.4,0.9-0.7,1.8-0.7,2.9H286.5z"></path> <path class="st1" d="M314.5,59.4c-1,0.4-2.2,0.9-3.6,1.3c-1.4,0.4-2.9,0.7-4.5,0.7c-1,0-2-0.1-2.9-0.4c-0.9-0.3-1.7-0.7-2.4-1.2 c-0.7-0.6-1.2-1.3-1.6-2.2c-0.4-0.9-0.6-2-0.6-3.3V37.7h-3.8v-5.7h3.8V20.4h7.4v11.7h6v5.7h-6v14.1c0,1,0.3,1.7,0.8,2.2 c0.5,0.4,1.2,0.6,2,0.6c0.8,0,1.5-0.1,2.3-0.4c0.7-0.3,1.3-0.5,1.8-0.7L314.5,59.4z"></path> <path class="st1" d="M329.7,61.3c-2.4,0-4.7-0.4-7-1.1c-2.3-0.8-4.2-1.8-5.8-3.2l2.7-4.5c1.7,1.2,3.4,2.1,5,2.8 c1.6,0.6,3.3,0.9,4.9,0.9c1.4,0,2.6-0.3,3.4-0.8c0.8-0.5,1.2-1.3,1.2-2.3c0-1-0.5-1.7-1.5-2.2c-1-0.5-2.6-1-4.7-1.6 c-1.8-0.5-3.4-1-4.7-1.5c-1.3-0.5-2.3-1-3.1-1.6c-0.8-0.6-1.4-1.3-1.7-2c-0.4-0.8-0.5-1.7-0.5-2.8c0-1.4,0.3-2.7,0.8-3.9 c0.6-1.1,1.3-2.1,2.3-2.9c1-0.8,2.2-1.4,3.5-1.9c1.3-0.4,2.8-0.6,4.4-0.6c2.1,0,4.1,0.3,6,0.9c1.8,0.6,3.5,1.6,5.1,3l-2.9,4.4 c-1.4-1.1-2.8-1.9-4.2-2.4c-1.3-0.5-2.7-0.8-4-0.8c-1.2,0-2.2,0.3-3.1,0.8c-0.8,0.5-1.2,1.3-1.2,2.4c0,0.5,0.1,0.9,0.3,1.2 c0.2,0.3,0.5,0.6,0.9,0.9c0.4,0.3,1,0.5,1.7,0.7c0.7,0.2,1.6,0.5,2.6,0.7c1.9,0.5,3.6,1,5,1.5c1.4,0.5,2.5,1.1,3.4,1.7 c0.9,0.6,1.5,1.4,1.9,2.2c0.4,0.8,0.6,1.9,0.6,3c0,2.8-1,4.9-3.1,6.5C336,60.5,333.2,61.3,329.7,61.3z"></path> <path class="st0" d="M38.4,48.4c-0.5,1.1-1.1,2.1-1.9,2.9c-0.8,0.8-1.6,1.4-2.5,1.9c-0.9,0.5-1.9,0.9-2.9,1.1c-1,0.2-2,0.3-2.9,0.3 c-1.8,0-3.4-0.4-4.9-1.2c-1.5-0.8-2.8-1.8-3.8-3.1c-1.1-1.3-1.9-2.8-2.5-4.4c-0.6-1.7-0.9-3.4-0.9-5.3c0-1.6,0.3-3.3,0.8-4.9 c0.5-1.6,1.2-3.1,2.2-4.4c1-1.3,2.2-2.4,3.7-3.2c1.5-0.8,3.2-1.2,5.3-1.2c0.9,0,1.9,0.1,2.8,0.3c1,0.2,1.9,0.6,2.8,1 c0.9,0.5,1.7,1.1,2.5,1.9c0.8,0.8,1.4,1.8,2,2.9l6.2-4.2c-1.4-2.7-3.4-4.8-6.2-6.5c-2-1.2-4.2-2-6.8-2.3v-4.6l-7.5,1.5v3.3 c-1.5,0.3-2.8,0.8-4.1,1.4c-2.5,1.2-4.6,2.8-6.4,4.7c-1.7,1.9-3.1,4.1-4,6.6c-0.9,2.5-1.4,4.9-1.4,7.5c0,2.6,0.5,5.2,1.5,7.7 c1,2.5,2.4,4.8,4.1,6.8c1.8,2,3.9,3.6,6.3,4.8c1.3,0.6,2.6,1.1,4,1.4v3.3l7.5,1.5v-4.7c0.6-0.1,1.1-0.2,1.7-0.3 c1.7-0.4,3.4-1,4.9-1.9c1.5-0.8,2.9-1.8,4.1-3c1.2-1.2,2.2-2.5,2.8-4.1L38.4,48.4z"></path> <g id="R-Ball_1_"> <path class="st1" d="M345.1,32.1c-0.4,0-0.7-0.1-1-0.2c-0.3-0.1-0.6-0.3-0.8-0.5c-0.2-0.2-0.4-0.5-0.5-0.8s-0.2-0.6-0.2-1 c0-0.3,0.1-0.7,0.2-1s0.3-0.5,0.5-0.8c0.2-0.2,0.5-0.4,0.8-0.5c0.3-0.1,0.6-0.2,1-0.2c0.4,0,0.7,0.1,1,0.2 c0.3,0.1,0.6,0.3,0.8,0.5c0.2,0.2,0.4,0.5,0.5,0.8c0.1,0.3,0.2,0.6,0.2,1c0,0.3-0.1,0.7-0.2,1c-0.1,0.3-0.3,0.5-0.5,0.8 c-0.2,0.2-0.5,0.4-0.8,0.5C345.8,32,345.5,32.1,345.1,32.1z M345.1,31.7c0.3,0,0.6-0.1,0.8-0.2c0.3-0.1,0.5-0.2,0.7-0.4 c0.2-0.2,0.3-0.4,0.5-0.7c0.1-0.3,0.2-0.5,0.2-0.8c0-0.3-0.1-0.6-0.2-0.8c-0.1-0.3-0.3-0.5-0.5-0.7c-0.2-0.2-0.4-0.3-0.7-0.4 c-0.3-0.1-0.6-0.2-0.9-0.2c-0.3,0-0.6,0.1-0.9,0.2c-0.3,0.1-0.5,0.3-0.7,0.4c-0.2,0.2-0.3,0.4-0.4,0.7c-0.1,0.3-0.2,0.5-0.2,0.8 c0,0.3,0.1,0.6,0.2,0.8c0.1,0.3,0.3,0.5,0.4,0.7c0.2,0.2,0.4,0.3,0.7,0.4C344.5,31.7,344.8,31.7,345.1,31.7z M344,28.2h1.3 c0.1,0,0.3,0,0.4,0.1c0.1,0.1,0.2,0.1,0.3,0.2c0.1,0.1,0.1,0.2,0.2,0.3c0,0.1,0.1,0.2,0.1,0.4c0,0.2,0,0.4-0.1,0.5 s-0.2,0.3-0.4,0.3l0.7,1.1h-0.7l-0.6-1h-0.4v1H344V28.2z M345.3,29.6c0.1,0,0.2,0,0.3-0.1c0.1-0.1,0.1-0.2,0.1-0.3 c0-0.1,0-0.2-0.1-0.3c-0.1-0.1-0.2-0.1-0.3-0.1h-0.6v0.8H345.3z"></path> </g> </g> </svg> 