<?xml version="1.0" encoding="UTF-8"?> <!-- Generator: Adobe Illustrator 25.2.3, SVG Export Plug-In . SVG Version: 6.00 Build 0) --> <svg xmlns="http://www.w3.org/2000/svg" xmlns:xlink="http://www.w3.org/1999/xlink" version="1.1" id="Layer_1" x="0px" y="0px" viewBox="0 0 1000 175" style="enable-background:new 0 0 1000 175;" xml:space="preserve"> <style type="text/css"> .st0{fill:#202843;} .st1{fill:#FFC94C;} .st2{fill-rule:evenodd;clip-rule:evenodd;fill:#202843;} </style> <ellipse transform="matrix(2.887230e-02 -0.9996 0.9996 2.887230e-02 -3.0979 166.9398)" class="st0" cx="84.4" cy="85.1" rx="67.9" ry="67.9"></ellipse> <path class="st1" d="M26.9,121.2c10.6-5,46.5-22.7,53.6-26.8c5.8-3.4,14.5-8.4,14.5-8.4l3.7,7.5l5.6,36.9l4.3-2.5l2.9-51.6 c8.7-5.4,16.3-10.7,24.3-16.2c2.9-2,5.9-4.1,9-6.2c-1-1.9-2-3.7-3.2-5.5c-3.4,1.6-6.6,3.2-9.8,4.7c-8.8,4.2-17.2,8.1-26.2,12.9 L59.4,42.7l-4.3,2.5l29.2,23.3l4.6,6.9l0,0c0,0-8.7,5-14.5,8.4c-7.1,4.1-40.4,26.4-50,33C25.1,118.3,26,119.8,26.9,121.2z"></path> <g> <path class="st2" d="M624.7,83.3c-4-5.9-10.8-9.6-18.7-9.6c-11.9,0-20.2,10.1-20.2,22.8s7.9,23.1,20.2,23.1 c8.2,0,14.8-4.7,18.7-10.7V83.3z M625.6,70v-7.5h13.1v67.9h-13.5v-7.7c-4.8,5.6-11.6,9.3-21.4,9.3c-19.3,0-31.7-15.4-31.7-35.5 c0-20,12.4-35.5,31.7-35.5C612.4,61,620.3,64.2,625.6,70z"></path> <path class="st0" d="M544.9,45c0-5.2,4.3-9.4,9.5-9.4c5.1,0,9.4,4.3,9.4,9.4c0,5.3-4.2,9.5-9.4,9.5C549.2,54.6,544.9,50.3,544.9,45 z"></path> <rect x="547.4" y="62.5" class="st0" width="14" height="67.9"></rect> <path class="st2" d="M519.6,83.3c-4-5.9-10.8-9.6-18.7-9.6c-11.9,0-20.2,10.1-20.2,22.8s7.9,23.1,20.2,23.1 c8.2,0,14.8-4.7,18.7-10.7V83.3z M519.9,37.3h13.7v93.1l-13.5,0v-7.7c-4.8,5.6-11.6,9.3-21.4,9.3c-19.3,0-31.7-15.4-31.7-35.5 c0-20,12.4-35.5,31.7-35.5c8.3,0,15.9,3,21.2,8.3V37.3z"></path> <path class="st2" d="M407.2,89.6h38.3c-1.4-9.4-9.1-16.5-19.1-16.5c-5,0-9.6,2.2-13,5.4C410.1,81.6,407.8,85.6,407.2,89.6z M427.5,132.1c6.1,0,11.7-1.2,16.7-3.4c5-2.3,9.4-5.6,13.2-9.9l-8.4-8.9l0,0c-2.8,3-5.9,5.2-9.4,7.1c-3.5,1.7-7.4,2.6-11.8,2.6 c-10.5,0-19.6-7.9-20.9-18.3l52.8,0c0-0.2,0-0.3,0-0.5c0.1-1.6,0.2-3.2,0.2-4.9c0-19.4-13.9-35.1-33.2-35.1 c-19.4,0-34,15.3-34,35.7C392.7,117.2,407.3,132.1,427.5,132.1z"></path> <path class="st2" d="M333.4,109.6c4,5.9,10.8,9.6,18.7,9.6c11.9,0,20.2-10.1,20.2-22.8s-7.9-23.1-20.2-23.1 c-8.2,0-14.8,4.7-18.7,10.7V109.6z M333.1,123.6v32h-13.7V62.5l13.5,0v7.7c4.8-5.6,11.6-9.3,21.4-9.3c19.3,0,31.7,15.4,31.7,35.5 c0,20-12.4,35.5-31.7,35.5C346,131.9,338.4,128.9,333.1,123.6z"></path> <polygon class="st0" points="270.7,95.5 246.7,62.5 263.7,62.5 279.6,85 295.6,62.5 312.3,62.5 288.3,95.6 313.4,130.4 296.5,130.4 279.5,106.4 262.4,130.4 245.4,130.4 "></polygon> <polygon class="st0" points="201.5,90.6 236.8,90.6 236.8,77.2 201.5,77.2 201.5,53 239.8,53 239.8,39.7 186.1,39.7 186.1,130.4 240.1,130.4 240.1,117.1 201.5,117.1 "></polygon> </g> <path class="st0" d="M649.7,124.6c0,0.4-0.3,0.6-0.7,0.6h-0.6V124h0.6C649.4,124,649.7,124.2,649.7,124.6z M650.8,124.6 c0-1-0.7-1.5-1.8-1.5h-1.7v4.9h1v-1.8h0.4l1.1,1.8h1.2l-1.3-1.9C650.4,125.7,650.8,125.2,650.8,124.6z M652.6,125.5 c0,2.1-1.7,3.9-3.7,3.9c-2.1,0-3.7-1.8-3.7-3.9c0-2.1,1.7-3.9,3.7-3.9C651,121.6,652.6,123.4,652.6,125.5z M653.7,125.5 c0-2.7-2.2-4.9-4.8-4.9c-2.6,0-4.8,2.2-4.8,4.9c0,2.7,2.2,4.9,4.8,4.9C651.5,130.4,653.7,128.2,653.7,125.5z"></path> <path class="st0" d="M145,135.3c4,0,7.2,3.3,7.2,7.3c0,4.3-3.6,7.3-7.4,7.2c-4-0.1-7.2-3.4-7.1-7.4 C137.7,138.5,140.9,135.2,145,135.3z M144.9,148.7c3,0,6.1-2.3,6.1-6c0-3.7-2.9-6.3-6.2-6.2c-4,0.1-6,3.5-6,6.2 C138.8,146,141.7,148.8,144.9,148.7z"></path> <path class="st0" d="M141.9,138.4c1.5,0,2.9-0.1,4.3,0.1c0.3,0,0.7,0.1,1,0.3c1.5,0.6,1.8,2.5,0.6,3.6c-0.3,0.2-0.6,0.4-0.9,0.6 c0.4,1.2,1.2,2.2,1.6,3.5c-0.7,0.1-1.3,0.1-1.9,0c-0.5-1.1-1-2.1-1.6-3.2c-0.4,0-0.7,0-1.1,0c-0.1,0.2-0.1,0.3-0.1,0.4 c0,0.9,0,1.8,0,2.8c-0.6,0.1-1.1,0.1-1.7,0c-0.3-0.9-0.1-1.7-0.1-2.6c0-0.9,0-1.8,0-2.7C141.9,140.3,141.8,139.5,141.9,138.4z M143.7,141.9c0.7,0.2,1.3,0.1,1.9,0c0.6-0.1,1-0.5,1-1c0-0.7-0.2-1.1-0.9-1.3c-0.6-0.2-1.3-0.1-2,0 C143.6,140.4,143.7,141.1,143.7,141.9z"></path> <g> <polygon class="st0" points="706.4,130.4 706.4,52.9 680.9,52.9 680.9,39.7 746.5,39.7 746.5,52.9 721,52.9 721,130.4 "></polygon> <path class="st0" d="M812.6,130.4l-9.3-23.3h-38l-9.2,23.3h-14.7l36.9-90.7h12.5l36.9,90.7H812.6z M769.8,94.6h29l-14.6-36.7 L769.8,94.6z"></path> <path class="st0" d="M899.6,130.4l-9.3-23.3h-38l-9.2,23.3h-14.7l36.9-90.7h12.5l36.9,90.7H899.6z M856.8,94.6h29l-14.6-36.7 L856.8,94.6z"></path> <path class="st0" d="M925.7,130.4V39.7h29.2c4.6,0,8.9,0.6,12.7,1.9c3.8,1.2,7.1,3,9.8,5.3c2.7,2.3,4.8,5.2,6.3,8.6 c1.5,3.4,2.2,7.3,2.2,11.7c0,4.4-0.8,8.3-2.2,11.6c-1.5,3.3-3.6,6.2-6.3,8.5c-2.7,2.3-6,4.1-9.8,5.3c-3.8,1.2-8.1,1.9-12.7,1.9 h-14.8v35.9H925.7z M940.1,81.8h15c4.8,0,8.8-1.3,11.8-3.8c3.1-2.5,4.7-6.2,4.7-10.9c0-4.7-1.6-8.3-4.7-10.9 c-3.1-2.5-7-3.8-11.8-3.8h-15V81.8z"></path> </g> </svg> 