<?xml version="1.0" encoding="UTF-8" standalone="no"?> <svg xmlns="http://www.w3.org/2000/svg" xmlns:xlink="http://www.w3.org/1999/xlink" xmlns:serif="http://www.serif.com/" width="100%" height="100%" viewBox="0 0 617 146" version="1.1" xml:space="preserve" style="fill-rule:evenodd;clip-rule:evenodd;stroke-linejoin:round;stroke-miterlimit:2;"> <g id="Artboard1" transform="matrix(0.985113,0,0,0.894073,-76.2747,-194.108)"> <rect x="77.427" y="217.106" width="625.677" height="163.273" style="fill:none;"></rect> <g transform="matrix(1.01511,0,0,1.11848,-10.1914,-44.9479)"> <path d="M100.2,247.2L118.9,247.2L118.9,289.9C119.1,290 119.3,290.1 119.5,290.3L119.8,289.4C125.3,282 132.6,278 141.8,277.2C147.6,276.7 153.3,277.3 158.7,279.5C168.3,283.3 173.2,290.6 174.2,300.6C174.6,305 174.6,309.4 174.6,313.9L174.6,363.8L155.7,363.8L155.7,361.7C155.7,344.8 155.8,328 155.6,311.1C155.6,307.9 155,304.7 154.2,301.6C152.5,295.6 148,292.5 141.7,292C126.3,290.7 118.9,302.4 118.9,313.9C118.8,329.7 118.9,345.6 118.9,361.4L118.9,363.9L100.2,363.9L100.2,247.2Z" style="fill:rgb(38,34,35);fill-rule:nonzero;"></path> </g> <g transform="matrix(1.01511,0,0,1.11848,-10.1914,-44.9479)"> <path d="M656.5,314.1C656,301.4 646.7,291.7 635.1,292C623,292.3 612.7,302.7 613.5,314.1L656.5,314.1ZM630.3,366.3C627.7,365.7 624.9,365.4 622.4,364.6C611,361.1 602.6,354.1 598.4,342.9C592.3,326.9 592.6,310.9 601.6,296C608.7,284.3 619.4,278 633.2,277.2C654.2,276 670.5,290.3 674.8,310.2C676,315.6 676.4,321 675.4,326.6L613.4,326.6C613.2,337.1 618,346.9 627.4,350C635.6,352.7 643.8,352.5 650.6,346.5C652.9,344.5 654.2,341.3 656,338.6C656.3,338.1 656.9,337.4 657.4,337.4C663,337.3 668.5,337.4 674.3,337.4C673,344 670.1,349.6 665.7,354.3C659.4,361 651.6,364.6 642.6,365.8C642.2,365.9 641.8,366 641.4,366.2L630.3,366.2L630.3,366.3Z" style="fill:rgb(38,34,35);fill-rule:nonzero;"></path> </g> <g transform="matrix(1.01511,0,0,1.11848,-10.1914,-44.9479)"> <path d="M505.2,245.7C505.7,246 506.3,246.2 506.9,246.5C511.3,248.4 513.8,253.3 512.7,257.9C511.7,262.4 507.4,265.8 502.7,265.8C497.9,265.8 493.8,262.4 492.8,257.5C491.9,253.1 494.5,248.3 498.7,246.5C499.2,246.3 499.7,246 500.2,245.8L505.2,245.8L505.2,245.7Z" style="fill:rgb(38,34,35);fill-rule:nonzero;"></path> </g> <g transform="matrix(1.01511,0,0,1.11848,-10.1914,-44.9479)"> <path d="M234.7,277.2C258.9,277.3 278.2,296.7 278.1,320.6C278.1,344.8 258,364.7 233.2,363.9C210.5,363.2 191.1,344.7 191.1,320C191.3,296.5 211,277.1 234.7,277.2" style="fill:rgb(235,28,41);fill-rule:nonzero;"></path> </g> <g transform="matrix(1.01511,0,0,1.11848,-10.1914,-44.9479)"> <path d="M429.5,364C424.3,343.2 419.1,322.4 413.9,301.7L413.6,301.7C408.5,322.4 403.3,343.1 398.2,364L378.3,364C369.6,336 360.9,307.9 352.1,279.6C352.8,279.5 353.4,279.5 353.9,279.5L370.3,279.5C371.7,279.5 372.2,279.9 372.6,281.3C377.8,301.2 383,321.2 388.2,341.1C388.3,341.5 388.5,341.9 388.8,342.8C389.7,339.4 390.4,336.4 391.2,333.4C395.6,316.1 399.9,298.7 404.2,281.4C404.5,280 405.1,279.5 406.6,279.5C411.7,279.6 416.7,279.6 421.8,279.5C423.2,279.5 423.8,279.9 424.1,281.3C428.4,299.4 432.8,317.4 437.1,335.5C437.6,337.8 438.2,340 438.8,342.7C439.1,342 439.3,341.7 439.4,341.3C444.8,321.4 450.3,301.4 455.7,281.5C456.1,280 456.7,279.5 458.3,279.6C463.9,279.7 469.4,279.6 475.3,279.6C475.1,280.4 475,281 474.8,281.5C466.3,308.6 457.8,335.7 449.2,362.9C449,363.5 448.3,364.3 447.8,364.3C441.8,364 435.8,364 429.5,364" style="fill:rgb(38,34,35);fill-rule:nonzero;"></path> <path d="M291.1,279.3L305,279.3L305,254.2L323.9,254.2L323.9,279.3L339.3,279.3C340.4,279.3 340.9,279.6 340.9,280.8C340.8,284.5 340.8,288.3 340.9,292C340.9,293.3 340.4,293.6 339.2,293.6L324,293.6L324,339.5C324,340.9 324.1,342.4 324.3,343.9C324.8,347.7 327.2,349.9 331.3,350C332.9,350.1 334.5,350.1 336,350C337.6,349.9 339.1,349.8 340.8,349.6L340.8,363.9C332.7,365 324.7,365.8 316.7,363.5C309.7,361.6 306.4,356.6 305.7,349.6C305.4,346.5 305.2,343.3 305.2,340.1C305.1,325.4 305.2,310.7 305.2,296L305.2,293.5L291.3,293.5L291.3,279.3L291.1,279.3Z" style="fill:rgb(38,34,35);fill-rule:nonzero;"></path> <path d="M557.2,363.9L538,363.9L538,281.6C538,279.8 538.4,279.2 540.3,279.2C544.8,279.3 549.3,279.2 553.8,279.2C554.4,279.2 555,279.3 555.8,279.3L555.8,295C555.9,295 556,295.1 556.1,295.1C556.4,294.3 556.7,293.5 557.1,292.8C562.3,283.2 570.1,277.7 581.1,277C582.9,276.9 584.8,277.1 586.6,277.4C587.1,277.5 587.9,278.1 587.9,278.5C588,284.1 588,289.7 588,295.6C586.1,295.4 584.3,295.2 582.6,295.1C570.6,293.9 563,301 559.7,309.4C557.9,313.8 557.2,318.4 557.2,323.1C557.1,336 557.2,348.8 557.2,361.7L557.2,363.9Z" style="fill:rgb(38,34,35);fill-rule:nonzero;"></path> <path d="M512.2,363.9L493.5,363.9L493.5,279.5C493.8,279.4 494.2,279.3 494.5,279.3L510.7,279.3C511.9,279.3 512.3,279.7 512.3,280.9L512.3,363C512.3,363.2 512.3,363.5 512.2,363.9" style="fill:rgb(38,34,35);fill-rule:nonzero;"></path> <path d="M681.1,275.7C683.2,275 684.2,275.8 684.7,277.7C685.1,279.2 685.8,280.6 686.5,282.4C687.2,280.6 687.8,279.2 688.3,277.7C688.8,275.9 689.8,275 691.9,275.8L691.9,285.6L690.2,285.6L690.2,279.3C690.1,279.3 689.9,279.3 689.8,279.2C689.1,280.9 688.5,282.7 687.8,284.4C687.6,284.9 687.1,285.5 686.6,285.6C686.2,285.6 685.6,285 685.4,284.5C684.6,282.7 683.9,280.8 682.9,279L682.9,285.5C682.3,285.5 681.7,285.6 681.2,285.6L681.2,275.7L681.1,275.7Z" style="fill:rgb(38,34,35);fill-rule:nonzero;"></path> <path d="M679,277.3L676,277.3L676,285.5C675.3,285.5 674.7,285.6 673.9,285.6L673.9,277.4C672.8,277.3 671.9,277.3 671,277.2C670.7,276.1 670.8,275.5 672.1,275.5L678.7,275.5C678.9,276.1 679,276.6 679,277.3" style="fill:rgb(38,34,35);fill-rule:nonzero;"></path> </g> </g> </svg> 