<?xml version="1.0" encoding="UTF-8"?> <svg xmlns="http://www.w3.org/2000/svg" width="410" height="35.179" viewBox="0 0 410 35.179"><path d="M725.056,316.888l-1.222-.311a7.861,7.861,0,0,1-6-7.468c-.128-5.951-.094-11.905-.1-17.858,0-.251.328-.715.511-.719,2.394-.049,4.789-.032,7.319-.032v1.122c0,4.83-.01,9.66,0,14.489.007,2.324,1.513,3.785,3.626,3.572a3.015,3.015,0,0,0,2.822-2.934c.08-2,.08-4.007.088-6.011.013-3.068.03-6.137-.013-9.2-.012-.845.257-1.08,1.089-1.06,2.212.056,4.425.02,6.7.02v26.017h-4.362c-.759,0-1.523-.048-2.278.013-.787.062-1.031-.271-.963-1a7.609,7.609,0,0,0-.078-1.107,10.017,10.017,0,0,1-5.143,2.469Z" transform="translate(-329.886 -281.709)" fill="#e90a8d" fill-rule="evenodd"></path><path d="M339.891,316.885c-.407-.105-.814-.211-1.22-.315a7.8,7.8,0,0,1-5.978-7.492c-.161-6.072-.058-12.149-.062-18.225a1.239,1.239,0,0,1,.1-.3h7.642c.019.368.055.747.056,1.127,0,4.8-.007,9.6.007,14.4.008,2.442,1.609,3.9,3.869,3.572a3,3,0,0,0,2.553-2.6,11.574,11.574,0,0,0,.088-1.544c.006-4.648.018-9.3-.01-13.944,0-.8.169-1.12,1.055-1.092,2.214.067,4.432.022,6.731.022v25.939H347.25c-.038-.607-.076-1.193-.119-1.873a17.664,17.664,0,0,1-2.074,1.276c-.961.423-1.983.706-2.979,1.05Z" transform="translate(-163.632 -281.707)" fill="#e90a8d" fill-rule="evenodd"></path><path d="M677.329,316.648c-.6-.1-1.2-.174-1.786-.3a7.808,7.808,0,0,1-6.275-8.64,7.328,7.328,0,0,1,7.393-7.048c1.971-.072,3.946-.052,5.919-.03.635.006.834-.2.829-.839a2.745,2.745,0,0,0-2.448-3.076,5.675,5.675,0,0,0-5.617,1.483l-4.891-4.851a9.314,9.314,0,0,1,4.653-2.86,19.572,19.572,0,0,1,10.161.213c3.817,1.146,5.943,3.954,6.017,8.156.1,5.675.023,11.353.018,17.03a1.778,1.778,0,0,1-.072.32h-7.6c-.032-.585-.065-1.17-.1-1.877a8.368,8.368,0,0,0-.713.527,8.05,8.05,0,0,1-4.573,1.792Zm6.017-10.8c-1.586,0-3.069-.039-4.549.014a2.13,2.13,0,0,0-2.006,1.8,2.088,2.088,0,0,0,1.4,2.29,4.387,4.387,0,0,0,4.149-.525C683.508,308.53,683.443,307.245,683.346,305.851Z" transform="translate(-308.953 -281.469)" fill="#e90a8d" fill-rule="evenodd"></path><path d="M69.93,316.677c-.772-.144-1.557-.24-2.314-.439a7.748,7.748,0,0,1-5.677-7.115c-.351-5.252,3.109-8.349,7.827-8.456,1.791-.04,3.583-.012,5.374-.022.986-.005,1.09-.134.951-1.127-.276-1.986-1.17-2.781-3.285-2.921-2-.131-2.746.114-4.768,1.552l-4.852-4.844a9.867,9.867,0,0,1,5.885-3.056,19.98,19.98,0,0,1,9.173.587,7.893,7.893,0,0,1,5.673,7.829c.047,5.618.028,11.236.034,16.854,0,.209-.033.418-.057.7H76.379c-.039-.587-.078-1.168-.124-1.851a2.788,2.788,0,0,0-.477.264,6.822,6.822,0,0,1-4.412,1.913,2.767,2.767,0,0,0-.525.129Zm3.672-10.8H71.69c-.06,0-.121,0-.181.005a2.13,2.13,0,0,0-.835,4.05,3.7,3.7,0,0,0,5.466-3.405c-.012-.446-.135-.677-.626-.656C74.877,305.894,74.239,305.873,73.6,305.873Z" transform="translate(-46.781 -281.498)" fill="#e90a8d" fill-rule="evenodd"></path><path d="M422.412,316.676c-.862-.153-1.733-.273-2.586-.466a10.116,10.116,0,0,1-8.112-9.158,22.087,22.087,0,0,1,.3-8.5c1.541-5.8,6.174-9.036,12.177-8.517,5.775.5,9.694,4.191,10.38,9.993a50.643,50.643,0,0,1,.035,5.819H419.281c-.257,2.083,1.611,3.98,3.871,4.135a6.921,6.921,0,0,0,5.977-2.086l4.708,4.674a12.178,12.178,0,0,1-7.356,3.88c-.387.049-.769.146-1.153.221Zm.672-16.032c1.063,0,2.125-.019,3.187.008.622.015.793-.246.706-.831a3.934,3.934,0,0,0-7.806.116c-.066.548.138.714.635.71C420.9,300.637,421.992,300.644,423.085,300.644Z" transform="translate(-197.669 -281.498)" fill="#e90a8d" fill-rule="evenodd"></path><path d="M533.579,316.685c-.647-.14-1.3-.265-1.943-.422a9.991,9.991,0,0,1-7.692-8.877,33.787,33.787,0,0,1,.183-9.245,10.035,10.035,0,0,1,8.776-8.02,13.117,13.117,0,0,1,7.212.92,9.581,9.581,0,0,1,5.67,7.507,28.249,28.249,0,0,1-.2,10.486,9.972,9.972,0,0,1-8.305,7.428c-.326.044-.643.147-.964.222Zm4.761-13.405c-.118-1.22-.163-2.468-.372-3.687a2.726,2.726,0,0,0-2.9-2.461c-1.794-.027-2.821.671-3.162,2.356a19.014,19.014,0,0,0-.013,7.588,3.1,3.1,0,0,0,6.091-.155C538.183,305.73,538.225,304.513,538.34,303.28Z" transform="translate(-246.133 -281.507)" fill="#e90a8d" fill-rule="evenodd"></path><path d="M115.843,316.634c-1.284-.2-2.576-.356-3.852-.6a10.467,10.467,0,0,1-5.367-3.01c1.687-1.682,3.352-3.342,5.085-5.068,1.674,1.671,4.01,2.015,6.448,1.953a8.036,8.036,0,0,0,2.042-.381,1.374,1.374,0,0,0,1.138-1.449,1.5,1.5,0,0,0-1.354-1.487c-1.136-.179-2.289-.253-3.431-.393a27.148,27.148,0,0,1-3.145-.447c-4.443-1.089-6.032-4.077-5.436-8.481.543-4.015,3.326-6.09,7.019-6.932a17.639,17.639,0,0,1,10.117.65,23.076,23.076,0,0,1,3.356,1.892L123.5,297.8c-1.842-1.387-4.078-1.5-6.377-1.265a1.474,1.474,0,0,0-.91.345c-.327.385-.773.939-.7,1.329a1.7,1.7,0,0,0,1.087,1.11,47.356,47.356,0,0,0,4.869.581c3.687.29,6.573,2.418,7.244,5.6,1.07,5.074-.933,9-6.489,10.522-1.016.279-2.072.414-3.109.616Z" transform="translate(-66.081 -281.455)" fill="#e90a8d" fill-rule="evenodd"></path><path d="M494.864,316.688c-.5-.095-1.007-.188-1.509-.284-4.655-.888-7.415-3.755-8.5-8.278a20.712,20.712,0,0,1,.037-9.821c1.249-5.163,5.143-8.15,10.66-8.287a11.811,11.811,0,0,1,8.5,2.8,3.318,3.318,0,0,0,.472.308l-5.394,5.363c-.139-.108-.413-.328-.695-.539a3.539,3.539,0,0,0-5.791,1.857,12.64,12.64,0,0,0-.084,6.741c.771,3.041,3.729,3.928,6.151,1.915l.451-.371,5.3,5.331a10.89,10.89,0,0,1-6.178,3.046c-.294.047-.581.144-.87.218Z" transform="translate(-229.109 -281.509)" fill="#e90a8d" fill-rule="evenodd"></path><path d="M35.286,275.684c2.278,0,4.557.045,6.833-.009.855-.02,1.077.265,1.075,1.084-.025,7.957-.015,15.915-.014,23.872,0,2.727.222,2.948,2.953,2.95,1.42,0,1.42,0,1.421,1.434s.024,2.855-.023,4.282c-.009.276-.3.777-.457.777a34.681,34.681,0,0,1-5.627-.152c-3.318-.534-5.272-2.649-5.956-5.936a4.872,4.872,0,0,0-.2-.6Z" transform="translate(-35.286 -275.32)" fill="#e90a8d" fill-rule="evenodd"></path><path d="M266.67,275.05v5.943h-7.838V275.05Z" transform="translate(-131.787 -275.05)" fill="#e90a8d" fill-rule="evenodd"></path><path d="M580.242,316.231h-7.848V290.252h4.712c.213,0,.425,0,.638,0,.667.012,1.48-.2,1.954.113.361.236.29,1.132.423,1.79,4.221-2.968,8.363-3.142,12.414.456.172-.118.373-.241.557-.388a10.478,10.478,0,0,1,10.234-1.686,7.62,7.62,0,0,1,5.474,7.34c.266,5.882.135,11.781.135,17.674,0,.237-.36.677-.56.68-2.367.048-4.734.031-7.265.031v-1.1c0-4.71.006-9.418-.008-14.127a6.7,6.7,0,0,0-.181-1.619,3.06,3.06,0,0,0-3.438-2.324,3.133,3.133,0,0,0-2.824,2.765,14.131,14.131,0,0,0-.09,1.727c-.007,4.527-.026,9.054.015,13.579.007.882-.256,1.15-1.134,1.121-1.911-.061-3.826-.017-5.74-.021-.3,0-.593-.031-1-.053v-1.119c0-4.83.007-9.661,0-14.491,0-2.1-1.247-3.478-3.128-3.513a3.138,3.138,0,0,0-3.331,3.294c-.015,4.891-.005,9.782-.005,14.673Z" transform="translate(-267.146 -281.465)" fill="#e90a8d" fill-rule="evenodd"></path><path d="M191.861,316.28H186.31c-2.3,0-2.3,0-2.3-2.281q0-11.252,0-22.5c0-1.231,0-1.232,1.242-1.232h6.373c.036.639.068,1.229.107,1.924,4.292-2.969,8.445-3.189,12.489.467a9.91,9.91,0,0,1,4.861-2.465c4.677-.714,8.351.309,10.37,4.262a10.6,10.6,0,0,1,1.138,4.437c.13,5.735.053,11.475.053,17.3h-7.91V315.12c0-4.889.01-9.779-.005-14.668a3.123,3.123,0,0,0-3.447-3.349,3.181,3.181,0,0,0-3.008,3.363c-.035,4.191-.018,8.382-.021,12.573,0,1.029,0,2.057,0,3.241h-6.579c-1.258,0-1.261,0-1.262-1.225q0-6.378,0-12.755c0-.637-.026-1.274-.07-1.91-.151-2.187-1.369-3.355-3.409-3.288a3.246,3.246,0,0,0-3.056,3.515c-.019,3.432-.006,6.864-.006,10.3Z" transform="translate(-99.486 -281.476)" fill="#e90a8d" fill-rule="evenodd"></path><path d="M305.678,316.295c-2.517,0-4.883-.007-7.249.005-.59,0-.6-.374-.6-.791,0-1.336,0-2.673,0-4.009-.02-3.705.007-7.411-.087-11.115a3.028,3.028,0,0,0-3.328-3.264,3.215,3.215,0,0,0-3.12,3.451c-.024,4.283-.009,8.567-.009,12.85V316.3h-1.846c-1.7,0-3.4-.024-5.1.011-.652.013-.916-.174-.914-.867q.026-12.166.014-24.332c0-.379-.078-.83.548-.829,2.333.007,4.666,0,7.069,0,.035.661.066,1.246.1,1.979.351-.239.592-.4.826-.564a8.9,8.9,0,0,1,7.267-1.505,7.752,7.752,0,0,1,6.24,7.043c.146,1.659.178,3.333.188,5,.024,4.283.008,8.566.008,12.849Z" transform="translate(-142.399 -281.496)" fill="#e90a8d" fill-rule="evenodd"></path><path d="M164.126,305.063v6.516c-2.886-.063-5.83.537-8.483-1.142a7.114,7.114,0,0,1-3.4-6.184c-.073-3.458-.018-6.919-.019-10.379,0-1.249,0-1.249-1.211-1.253h-1.068a6.552,6.552,0,0,1-.086-.726c-.009-1.122,0-2.246,0-3.368,0-1.786,0-1.812,1.719-1.933.609-.043.659-.349.655-.827-.013-1.912.029-3.825-.022-5.736-.019-.742.249-.936.939-.925,2,.031,4.006.035,6.009,0,.729-.013.945.274.934.966-.03,1.881.015,3.763-.021,5.645-.012.681.227.915.9.882.847-.042,1.7,0,2.549-.007.429,0,.676.122.671.622-.018,1.756-.007,3.512-.007,5.38h-4.012c-.033.427-.08.75-.081,1.072q-.009,4.643,0,9.287c0,1.644.467,2.095,2.12,2.11C162.8,305.068,163.409,305.063,164.126,305.063Z" transform="translate(-84.741 -276.8)" fill="#e90a8d" fill-rule="evenodd"></path><path d="M381.58,292.628H379.2c0-1.919-.016-3.759.028-5.6,0-.15.4-.394.63-.417,1.78-.175,1.781-.161,1.781-2,0-1.549.019-3.1-.006-4.645-.01-.623.222-.865.852-.859,2.094.023,4.189.019,6.284,0,.543,0,.741.2.734.751-.025,1.973.009,3.947-.019,5.92-.009.583.173.827.77.808.849-.027,1.7.018,2.55-.005.592-.016.8.242.8.816-.019,1.487-.024,2.976,0,4.462.011.6-.234.791-.813.766-.849-.038-1.7.012-2.549-.016-.537-.018-.757.156-.754.724.018,3.37,0,6.74.016,10.11a1.451,1.451,0,0,0,1.509,1.59,13.133,13.133,0,0,0,1.82.02c.537-.024.775.167.77.726-.018,1.7.011,3.4-.03,5.1-.006.24-.309.681-.466.678a31.989,31.989,0,0,1-5.973-.29c-3.4-.723-5.463-3.636-5.488-7.22-.023-3.43,0-6.861-.008-10.291C381.639,293.432,381.606,293.1,381.58,292.628Z" transform="translate(-183.748 -276.803)" fill="#e90a8d" fill-rule="evenodd"></path><path d="M266.579,317.214H258.9c-.02-.318-.06-.638-.06-.956,0-7.655.009-15.309-.018-22.963,0-.784.2-1.072,1.014-1.051,2,.051,4.009.029,6.013.012.563-.005.814.161.813.778q-.023,11.8-.014,23.6A5.259,5.259,0,0,1,266.579,317.214Z" transform="translate(-131.783 -282.472)" fill="#e90a8d" fill-rule="evenodd"></path><path d="M646.684,329.683c0-2.714-.01-5.373.025-8.031,0-.17.364-.479.561-.481q3.727-.05,7.456,0c.2,0,.579.3.582.465.037,2.66.026,5.321.026,8.05Z" transform="translate(-299.215 -294.948)" fill="#e90a8d" fill-rule="evenodd"></path><path d="M460.914,329.741c0-2.77-.012-5.378.026-7.985a.833.833,0,0,1,.569-.58c2.457-.04,4.917-.043,7.375,0a.917.917,0,0,1,.6.656c.045,2.428.039,4.856.006,7.284,0,.209-.3.592-.464.593C466.367,329.752,463.7,329.741,460.914,329.741Z" transform="translate(-219.021 -294.949)" fill="#e90a8d" fill-rule="evenodd"></path></svg> 