<?xml version="1.0" encoding="UTF-8"?> <!-- Generator: Adobe Illustrator 25.3.1, SVG Export Plug-In . SVG Version: 6.00 Build 0) --> <svg xmlns="http://www.w3.org/2000/svg" xmlns:xlink="http://www.w3.org/1999/xlink" version="1.1" id="Layer_1" x="0px" y="0px" viewBox="0 0 448.2 166.9" style="enable-background:new 0 0 448.2 166.9;" xml:space="preserve"> <style type="text/css"> .st0{fill:#1C4695;} .st1{fill:#318EEE;} .st2{fill:#245ABC;} .st3{fill:#8EC089;} .st4{fill:#E85F24;} </style> <g> <path class="st0" d="M426.4,61.8v4.6h-0.7v-4.6h-2v-0.7h4.7v0.7H426.4z M434.2,66.4l-0.1-4.4H434l-1.6,4.4h-0.8l-1.5-4.4H430 l-0.2,4.4h-0.6l0.2-5.2h1.2l1.4,4.4h0.1l1.5-4.4h1.1l0.2,5.2H434.2z"></path> <g id="Stripes_8_"> <g id="_x30__8_"> <g id="Right_bowl_8_"> <path class="st0" d="M355.1,146.9c35.6-2.6,59.5-31.8,60-62.7c0.2-9.9-6.8-26.2-29.6-28.1l-0.1,0.2c18.9,2,25.6,15.8,25.4,24.8 c-0.5,30.3-24,62.3-55.6,65.6L355.1,146.9z"></path> <path class="st0" d="M355.8,145.6l-0.1,0.2c20.4-2.9,41.4-45.8,41.9-74.3c0.1-6.2-3.4-12.6-12.7-14.1l-0.1,0.2 c6,1.6,8.4,5.5,8.3,10.8C392.6,96.3,372.2,142.5,355.8,145.6z"></path> <path class="st0" d="M355.4,146.4c27.9-2.9,50.4-38.8,50.9-68.5c0.1-8.1-5.1-19.3-21.1-21.1l-0.1,0.2 c12.5,1.9,16.9,10.6,16.8,17.8c-0.5,29.1-22.4,68.2-46.4,71.4L355.4,146.4z"></path> <path class="st0" d="M385.7,55.6l-0.1,0.2c26.3,2.2,33.8,20.9,33.6,31.7c-0.5,31.4-24.9,56.8-64.3,59.8l-0.1,0.2 c43.1-2.6,68.4-24.9,68.9-56.8C424,78.9,415.4,57.3,385.7,55.6z"></path> </g> <g id="Left_bowl_8_"> <path class="st1" d="M317,115.3c0.5-31.2,27.4-56.8,64.3-59.8l0.1-0.2c-41.3,2.6-68.4,24.9-69,56.7 c-0.2,11.7,8.4,33.5,38.1,35.2l0.1-0.2C324.5,145.2,316.8,126.2,317,115.3z"></path> <path class="st2" d="M342.9,134.5c0.5-26.8,21.6-74,37.5-77.2l0.1-0.2c-19.7,2.9-41.5,46.5-42,74.2c-0.1,6.2,3.1,13.3,12.7,14.3 l0.1-0.2C344.8,144.2,342.9,139.8,342.9,134.5z"></path> <path class="st1" d="M325.6,121.7c0.5-29.7,24.7-62.4,55.4-65.6l0.1-0.2c-34.4,2.6-59.5,32-60,62.5c-0.2,9.9,6.8,26.8,29.7,28.3 l0.1-0.2C331.1,144.7,325.5,130.7,325.6,121.7z"></path> <path class="st2" d="M334.3,128.1c0.5-28.4,23.3-68.2,46.5-71.4l0.1-0.2c-27.2,2.9-50.4,39.3-50.9,68.3 c-0.1,8.1,5.3,20,21.1,21.3l0.1-0.2C338.6,144.4,334.2,135.3,334.3,128.1z"></path> </g> </g> <g id="b_8_"> <g id="Bowl_8_"> <path class="st0" d="M232.1,146.1l-0.1,0.2c32.2-3.8,56-42.9,58.4-68.1c0.8-8.3-3.1-12.7-8.7-13.5c-8.6-1.2-19.3,4.6-25.9,13.8 l0.2,0.2c6.3-8.1,15.1-13,22-12c4.9,0.7,7.9,4.4,7.3,11.2C283.1,100.8,261.2,140,232.1,146.1z"></path> <path class="st0" d="M232.5,145.3l-0.1,0.3c23.6-6.4,45.9-47.6,47.7-67.9c0.5-5.2-1.8-8.3-5.6-8.8c-5.6-0.8-12.9,3.5-18.1,10.2 l0.2,0.2c4.4-5.3,10.3-8.9,14.4-8.4c2.7,0.4,4.5,2.8,4.2,6.6C273.4,95.3,253,136.5,232.5,145.3z"></path> <path class="st0" d="M300.5,78.4c1-11.2-4-17-11.8-18c-11.3-1.6-25.1,5.3-33.4,17.5l0.2,0.2c7.6-10.5,19.9-17,29.7-15.6 c6.7,0.9,11.3,6,10.3,15.9c-2.6,27.9-29.2,66.3-63.7,68.5l-0.1,0.2C270.1,146.7,297.7,108.8,300.5,78.4z"></path> <path class="st0" d="M295.9,56.1c-14.2-2-31.4,6.4-41.1,21.1l0.2,0.2c9.2-13.2,24.7-21,37.4-19.3c8.6,1.2,14.4,7.6,13.2,20.4 c-3,32.4-30.4,68.9-74.2,68.8l-0.1,0.2c45.4,1.7,76.2-34,79.4-68.9C312.1,64.5,305.6,57.4,295.9,56.1z"></path> </g> <g id="Stem_16_"> <path class="st0" d="M228.7,122.1c-1.6,4-5.1,12.6-5.3,17.4c-0.1,2,1.5,4.5,3.5,5.5c0.4,0.2,0.6,0.3,1,0.4l0.1-0.3 c-0.6-0.4-1.3-1.7-1.1-3.7c0.4-4.7,4.2-13.3,5.8-17.5l44-112.3l-6,1.2c0.3,1.4-11.6,30.8-12.1,32.2L228.7,122.1z"></path> <path class="st1" d="M230.1,45.6l-25.6,66.1c-1.6,4.2-3.8,9.4-4.3,14.7c-0.9,10.9,8.5,19.7,27.1,20.4l0.1-0.2 c-15.7-0.9-24.2-8.3-23.3-18.1c0.4-5.1,2.8-11.1,4.5-15.1l26.5-68c2.4-6.2,9.4-21.5,5.6-26.6l-6,1.2v0.3 C238.6,26.3,232.8,38.7,230.1,45.6z"></path> <path class="st2" d="M240.1,44.2l-27.6,71c-1.6,4.2-4.3,10.7-4.7,15.7c-0.8,8.7,6.4,14.6,19.6,15.6l0.1-0.2 c-1.1-0.1-4.4-0.6-8-1.9c-5.5-2-8.2-5.8-7.7-11.1c0.4-5.1,3.1-12,4.7-16.2l28.3-72.7c1.4-3.8,9.5-22.2,7.6-27.8l-5.9,1.2V18 C249.6,22.4,242,39.4,240.1,44.2z"></path> <path class="st2" d="M220.6,118.7c-1.6,4.2-4.5,11.8-5,16.8c-0.5,6.1,4.8,9.5,12,10.6l0.1-0.2c-4.9-0.9-8.7-3.2-8.3-8.2 c0.4-4.8,3.8-13.3,5.2-17.1l29.5-75.6c0.7-2,11.9-29.1,10.3-30.8l-6,1.2v0.3c0.2,6.6-7.4,24.6-9,28.9L220.6,118.7z"></path> <path class="st1" d="M227.1,147.3c-21.1-0.9-31.8-11.2-30.7-23.2c0.4-5.1,2.4-9.8,4-14l24.4-63.2c3.1-7.9,8.8-19.8,4.3-25.6 l-5.5,1.2v0.3c4.7,5.3,0.3,14-2.9,22.8l-24.3,62.7c-1.6,4-3.3,8.3-3.8,13.6c-1.1,13,10.4,24.8,34.5,25.5L227.1,147.3z"></path> </g> </g> <g id="r_8_"> <path class="st0" d="M199.3,67.7c-0.4-8.4-5.4-12.2-11.4-12.2c-11,0-20.5,8.7-26.4,20.4c0-1.3,0-2.7-0.1-4.2 c-0.5-9.1-6.7-16.3-18-16.3c-23.8,0-35.5,15.7-39.4,33.4h0.2c4.1-16.6,15.2-31.6,36.6-31.6c10.2,0,15.9,6.4,16.3,14.6 c0.6,10.8-3,19.2-6.7,28.9L133,146.1h4.8l17.2-44.9c1.2-3.1,2.3-6,3.2-8.8h0c3.5-7.1,7.6-14.4,9.8-14.4c1.6,0,2.1,1.4,2.2,2.7 c0.4,4.8-1.4,12.6-5.1,19.3l0.2,0.2c4.4-3.8,9.2-15.3,8.9-21.4c-0.1-2.4-1.1-4-3.5-4c-3.7,0-8.4,7.6-11.9,15.6 c0.4-1.3,0.8-2.6,1.1-3.8c3.7-8.1,8.9-14.9,13.7-14.9c2.9,0,4.7,2,4.8,5.3c0.4,8-6.8,19.7-12.8,23.6l0.2,0.2 c8.2-3.7,17.3-15.7,16.7-25.6c-0.2-4.4-2.5-6.8-6.2-6.8c-6,0-11.9,7-15.9,15.7c0.1-0.7,0.2-1.4,0.4-2.1 c4.5-9.4,11.2-16.8,18.5-16.8c4,0,7.1,2.7,7.4,8c0.6,11.7-10.4,24.1-20.5,27.8l0.2,0.2c12.3-3.1,25.1-16.3,24.4-29.8 c-0.3-6.4-4-9.5-8.7-9.5c-8.5,0-16,7.7-20.9,17.8c0.1-0.5,0.1-1.1,0.1-1.7c5.4-10.9,13.9-19.2,23.8-19.2c5.3,0,9.7,3.5,10.1,10.8 c0.8,15.5-13.7,28.7-28.3,32l0.2,0.2C184.3,99.1,200.2,85,199.3,67.7z"></path> <path class="st1" d="M135.8,73.2c-0.2-4.2-2.9-7.1-7.7-7.1c-10.3,0-18.3,11.1-22.2,22.8h0.2c4.1-10.5,11-21,19.3-21 c3.7,0,5.8,2,6,5.5c0.3,5.7-5.4,18.5-8.2,25.6l-18.9,47.1h4.8l18.5-46.8C130.7,91.8,136.1,79.5,135.8,73.2z"></path> <path class="st1" d="M127.2,73.7c-0.1-2.7-1.7-4.2-4.2-4.2c-6,0-12.5,9.5-16.4,19.4h0.2c3.9-8.8,10-17.5,13.5-17.5 c1.5,0,2.4,0.7,2.5,2.6c0.2,3.8-6.2,18.3-8.8,24.5l-19.2,47.7h4.7l19.1-47.3C121.4,92,127.4,78.3,127.2,73.7z"></path> <path class="st2" d="M152.9,72.2c-0.4-7.5-5.5-13.3-14.6-13.3c-19,0-29.9,14.1-33.7,30h0.2c4.2-14.7,13.9-28.1,30.8-28.1 c8,0,12.5,4.9,12.9,11.7c0.5,9-3.8,18.8-7.1,27.8l-17.9,45.9h4.7l17.5-45.5C149.5,91.2,153.4,81.9,152.9,72.2z"></path> <path class="st2" d="M144.3,72.6c-0.3-5.8-4.2-10.2-11.1-10.2c-14.9,0-24,12.9-27.9,26.5h0.2c4.2-12.7,12.7-24.7,25.1-24.7 c5.8,0,9.1,3.7,9.4,8.8c0.4,7.1-4.5,18.6-7.7,26.7l-18.4,46.4h4.9l18-46.2C140,91.4,144.7,80.8,144.3,72.6z"></path> </g> <g id="V_8_"> <g id="Stem_15_"> <path class="st3" d="M75.2,114l3.1-6.4L67.9,54.7C65,39.8,68.5,33.3,80.2,31.1v-0.2H69.4c-3.1,1.5-9.8,6.3-6,23.9L75.2,114z"></path> <path class="st4" d="M69.1,126.8l3.1-6.4l-13.7-66c-2.6-12.8-1.5-19.5,2.8-23.3v-0.2H54c-2.3,4.8-2.9,9.6-0.4,22.2L69.1,126.8z"></path> <path class="st2" d="M35.4,30.9h-7.7v0.2c3.4,4.1,4.4,9.2,7.1,20.3l20.5,94.6l4.6,0L39.4,51.2C36.5,39,36,35.6,35.4,30.9z"></path> <path class="st0" d="M63,139.5l3-6.3L49,53c-3-12.5-2.3-18.2-1.1-22.1h-6.6c-0.1,5.1,0.2,9.3,2.6,20L63,139.5z"></path> <path class="st1" d="M20.1,30.9l-8.2,0v0.2C19.4,34,23,39.7,26,53c0,0.1,20.1,93,20.1,93l4.6,0L30.4,52.3 C26.9,36.2,23.3,33.2,20.1,30.9z"></path> </g> <g id="Finial_8_"> <path class="st4" d="M96.2,72.3l0.3,0.2c11.4-27,14.4-34.4,19.1-41.4v-0.2h-9.2l0,0.3C107.2,42,103.5,51.9,96.2,72.3z"></path> <path class="st0" d="M124.2,30.9c-9.6,5.6-15.4,16.1-27.5,41.8l0.3,0.2c13.9-26,21.8-36.4,39.8-41.8v-0.2H124.2z"></path> <path class="st3" d="M95.5,71.9l0.3,0.2c7.2-24.1,9.6-34.7,3.2-41.2H90v0.2C100.1,34.7,102.3,45,95.5,71.9z"></path> </g> </g> </g> </g> </svg> 