<?xml version="1.0" encoding="UTF-8"?> <!-- Generator: Adobe Illustrator 24.2.1, SVG Export Plug-In . SVG Version: 6.00 Build 0) --> <svg xmlns="http://www.w3.org/2000/svg" xmlns:xlink="http://www.w3.org/1999/xlink" version="1.1" id="Layer_1" x="0px" y="0px" viewBox="0 0 701 272.4" style="enable-background:new 0 0 701 272.4;" xml:space="preserve"> <style type="text/css"> .st0{fill:#7AC130;} </style> <g> <path class="st0" d="M664,233c0,11.7-8.3,19.5-20.5,19.5c-12.1,0-20.5-7.8-20.5-19.5c0-11.6,8.4-19.3,20.5-19.3 C655.6,213.7,664,221.4,664,233"></path> <path class="st0" d="M570.5,78.4c-3.3-0.5-6.2-0.7-9.5-0.7c-8.5,0-13.2,5.1-13.2,15.6v9.8h22.7v26.2h-22.7v61.5h-29.3v-61.5h-16.9 v-26.2h16.9V91.7c0-25.3,15.2-39.1,37.1-39.1c5.8,0,10.3,0.6,15,1.4V78.4z M477.5,87.7c-9.9,0-17.9-7.4-17.9-17.4 c0-10.3,8-17.7,17.9-17.7c9.6,0,17.7,7.4,17.7,17.7C495.2,80.3,487.1,87.7,477.5,87.7 M490.6,190.8h-29.3v-87.7h29.3V190.8z M611.4,171.2c7.5-14.4,11.6-31.3,11.6-50.1c0-61.3-44-101.7-108-101.7c-63.6,0-108,40.4-108,101.7c0,61.6,44.4,102.9,108,102.9 h77.2c18.2,0,30.7-11.7,30.7-29.3C623,184.4,618.7,176.3,611.4,171.2"></path> <polygon class="st0" points="125.7,190.8 106.8,135.7 88.2,190.8 55.4,190.8 23.2,88.1 57.9,88.1 74,146.1 94.1,88.1 119.7,88.1 139.7,146.3 156,88.1 190.5,88.1 158.5,190.8 "></polygon> <g> <path class="st0" d="M272.1,138.9c0-15.2-10.6-25.4-25.4-25.4c-14.8,0-25.4,10.2-25.4,25.4c0,15.7,10.6,26.1,25.4,26.1 C261.5,165,272.1,154.6,272.1,138.9 M304.9,138.9c0,33.3-23.7,55.5-58.2,55.5c-34.3,0-58.2-22.2-58.2-55.5 c0-33,23.9-54.9,58.2-54.9C281.2,84.1,304.9,105.9,304.9,138.9"></path> <path class="st0" d="M391.1,162.5c-5,0.5-8.8,0.8-12.3,0.8c-10.6,0-14.6-6.1-14.6-16.3v-28.2h26.9V88.1h-26.9v-35h-34.3v35h-19.7 v30.7h19.7v31.6c0,28.2,14.2,43.6,39.8,43.6c8.6,0,14.7-0.5,21.4-1.7V162.5z"></path> </g> </g> </svg> 